<?xml version="1.0" encoding="UTF-8"?>
<svg id="Layer_1" data-name="Layer 1" 
	xmlns="http://www.w3.org/2000/svg" viewBox="0 0 256 256" width="48" height="48">
	<defs>
		<style>      .cls-1 {        fill: #823dd0;      }      .cls-1, .cls-2 {        fill-rule: evenodd;      }      .cls-3 {        fill: #242938;      }      .cls-2 {        fill: #f8f9fe;      }    </style>
	</defs>
	<path class="cls-3" d="M60,0H196c33.1,0,60,26.9,60,60V196c0,33.1-26.9,60-60,60H60c-33.1,0-60-26.9-60-60V60C0,26.9,26.9,0,60,0Z"/>
	<g>
		<polygon class="cls-2" points="135.35 69 89.18 187 63.53 187 109.7 69 135.35 69"/>
		<polygon class="cls-2" points="89.18 69 43.01 187 17.35 187 63.53 69 89.18 69"/>
		<path class="cls-1" d="M140.49,130.48c0-8.94,1.44-16.87,4.29-23.79,2.87-6.93,6.72-12.75,11.57-17.5,4.84-4.74,10.44-8.36,16.78-10.88,6.33-2.5,12.96-3.76,19.91-3.76s13.02,1.39,18.59,4.17c5.56,2.78,10.27,6.08,14.12,9.89l-15.53,17.34c-2.64-2.3-5.23-4.07-7.76-5.32-2.53-1.25-5.56-1.88-9.08-1.88-3.2,0-6.26,.71-9.18,2.13-2.91,1.42-5.44,3.44-7.59,6.05-2.15,2.62-3.86,5.83-5.12,9.65-1.27,3.81-1.91,8.12-1.91,12.91,0,10.03,2.12,17.72,6.36,23.06,4.24,5.34,9.83,8,16.78,8,4.18,0,7.79-.78,10.82-2.36,3.03-1.59,5.71-3.63,8.01-6.14l15.54,17.01c-4.63,5.23-9.92,9.15-15.86,11.77-5.95,2.62-12.23,3.92-18.83,3.92-7.06,0-13.72-1.12-20-3.35s-11.79-5.61-16.52-10.13c-4.74-4.53-8.49-10.19-11.24-17.01-2.76-6.81-4.14-14.74-4.14-23.79Z"/>
	</g>
</svg>