<?xml version="1.0" encoding="UTF-8"?>
<svg id="Layer_1" data-name="Layer 1" 
	xmlns="http://www.w3.org/2000/svg" viewBox="0 0 256 256" width="48" height="48">
	<defs>
		<style>      .cls-1 {        fill: #ffa116;      }      .cls-2 {        fill: #242938;      }      .cls-3 {        fill: #b3b3b3;      }      .cls-3, .cls-4 {        fill-rule: evenodd;      }    </style>
	</defs>
	<path class="cls-2" d="M60,0H196c33.1,0,60,26.9,60,60V196c0,33.1-26.9,60-60,60H60c-33.1,0-60-26.9-60-60V60C0,26.9,26.9,0,60,0Z"/>
	<g id="Group-10">
		<path id="Combined-Shape" class="cls-1" d="M170.25,184.88c5.14-5.13,13.45-5.12,18.58,.03,5.12,5.15,5.11,13.48-.03,18.61l-22.81,22.78c-21.05,21.02-55.37,21.32-76.77,.71-.12-.12-9.65-9.46-41.09-40.29-20.92-20.51-23-53.33-3.32-74.4l36.7-39.29c19.53-20.92,55.54-23.2,77.88-5.14l33.33,26.96c5.64,4.56,6.53,12.85,1.97,18.5-4.56,5.65-12.83,6.54-18.47,1.97l-33.33-26.95c-11.68-9.45-32.11-8.15-42.19,2.64l-36.7,39.29c-9.58,10.26-8.53,26.79,2.51,37.61,23.09,22.64,40.88,40.08,40.9,40.1,11.13,10.72,29.12,10.56,40.04-.35l22.81-22.78Z"/>
		<path id="Path-2" class="cls-3" d="M114.83,162.08c-7.25,0-13.14-5.89-13.14-13.16s5.88-13.16,13.14-13.16h96.87c7.25,0,13.14,5.89,13.14,13.16s-5.88,13.16-13.14,13.16H114.83Z"/>
		<path id="Stroke-3" class="cls-4" d="M132.97,17.9c4.96-5.31,13.27-5.58,18.57-.62,5.3,4.96,5.57,13.29,.62,18.6L63.98,130.29c-9.58,10.26-8.53,26.79,2.51,37.61l40.72,39.93c5.18,5.08,5.27,13.41,.2,18.61-5.07,5.19-13.39,5.28-18.57,.2l-40.72-39.93c-20.91-20.51-23-53.33-3.32-74.4L132.97,17.9Z"/>
	</g>
</svg>